<svg width="34" height="34" viewBox="0 0 34 34" fill="none" xmlns="http://www.w3.org/2000/svg">
<path d="M17 33C25.8366 33 33 25.8366 33 17C33 8.16344 25.8366 1 17 1C8.16344 1 1 8.16344 1 17C1 25.8366 8.16344 33 17 33Z" stroke="black" stroke-width="1.5" stroke-miterlimit="10" stroke-linecap="round" stroke-linejoin="round"/>
<path d="M17.0008 21.1062C12.045 21.1062 7.79723 23.9381 5.67334 28.1859C8.5052 31.1593 12.6114 32.8584 17.0008 32.8584C21.3902 32.8584 25.4964 31.0177 28.3282 28.1859C26.2043 24.0797 21.9565 21.1062 17.0008 21.1062Z" stroke="black" stroke-width="1.5" stroke-miterlimit="10" stroke-linecap="round" stroke-linejoin="round"/>
<path d="M17.0002 17.4249C19.8154 17.4249 22.0975 15.1427 22.0975 12.3275C22.0975 9.51232 19.8154 7.23016 17.0002 7.23016C14.185 7.23016 11.9028 9.51232 11.9028 12.3275C11.9028 15.1427 14.185 17.4249 17.0002 17.4249Z" stroke="black" stroke-width="1.5" stroke-miterlimit="10" stroke-linecap="round" stroke-linejoin="round"/>
</svg>
